<svg width="26" height="26" viewBox="0 0 26 26" fill="none" xmlns="http://www.w3.org/2000/svg"><path fill-rule="evenodd" clip-rule="evenodd" d="M4.8534 1.7334H4.76673C4.3698 1.7334 4.02833 1.7334 3.72673 1.80447C3.25983 1.91603 2.83294 2.15468 2.49334 2.49397C2.15375 2.83325 1.91472 3.25994 1.80273 3.72673C1.7334 4.02833 1.7334 4.36806 1.7334 4.76673V9.10006C1.7334 9.497 1.7334 9.83846 1.80447 10.1401C1.91603 10.607 2.15468 11.0339 2.49397 11.3735C2.83325 11.713 3.25994 11.9521 3.72673 12.0641C4.02833 12.1334 4.36806 12.1334 4.76673 12.1334H9.10006C9.497 12.1334 9.83846 12.1334 10.1401 12.0623C10.607 11.9508 11.0339 11.7121 11.3735 11.3728C11.713 11.0335 11.9521 10.6069 12.0641 10.1401C12.1334 9.83846 12.1334 9.49873 12.1334 9.10006V4.76673C12.1334 4.3698 12.1334 4.02833 12.0623 3.72673C11.9508 3.25983 11.7121 2.83294 11.3728 2.49334C11.0335 2.15375 10.6069 1.91472 10.1401 1.80273C9.83846 1.7334 9.49873 1.7334 9.10006 1.7334H4.8534ZM4.1306 3.491C4.20513 3.47366 4.32126 3.46673 4.8534 3.46673H9.0134C9.54726 3.46673 9.66166 3.47193 9.7362 3.491C9.8919 3.52823 10.0343 3.60787 10.1475 3.72107C10.2607 3.83428 10.3403 3.97663 10.3775 4.13233C10.3949 4.20513 10.4001 4.31953 10.4001 4.8534V9.0134C10.4001 9.54726 10.3949 9.66166 10.3758 9.7362C10.3386 9.8919 10.2589 10.0343 10.1457 10.1475C10.0325 10.2607 9.89017 10.3403 9.73446 10.3775C9.6634 10.3931 9.549 10.4001 9.0134 10.4001H4.8534C4.31953 10.4001 4.20513 10.3949 4.1306 10.3758C3.97489 10.3386 3.83254 10.2589 3.71934 10.1457C3.60614 10.0325 3.5265 9.89017 3.48926 9.73446C3.47366 9.6634 3.46673 9.549 3.46673 9.0134V4.8534C3.46673 4.31953 3.47193 4.20513 3.491 4.1306C3.52823 3.97489 3.60787 3.83254 3.72107 3.71934C3.83428 3.60614 3.97663 3.5265 4.13233 3.48926L4.1306 3.491ZM16.9867 1.7334H16.9001C16.5031 1.7334 16.1617 1.7334 15.8601 1.80447C15.3932 1.91603 14.9663 2.15468 14.6267 2.49397C14.2871 2.83325 14.048 3.25994 13.9361 3.72673C13.8667 4.02833 13.8667 4.36806 13.8667 4.76673V9.10006C13.8667 9.497 13.8667 9.83846 13.9378 10.1401C14.0494 10.607 14.288 11.0339 14.6273 11.3735C14.9666 11.713 15.3933 11.9521 15.8601 12.0641C16.1617 12.1334 16.5014 12.1334 16.9001 12.1334H21.2334C21.6303 12.1334 21.9718 12.1334 22.2734 12.0623C22.7403 11.9508 23.1672 11.7121 23.5068 11.3728C23.8464 11.0335 24.0854 10.6069 24.1974 10.1401C24.2667 9.83846 24.2667 9.49873 24.2667 9.10006V4.76673C24.2667 4.3698 24.2667 4.02833 24.1957 3.72673C24.0841 3.25983 23.8454 2.83294 23.5062 2.49334C23.1669 2.15375 22.7402 1.91472 22.2734 1.80273C21.9718 1.7334 21.6321 1.7334 21.2334 1.7334H16.9867ZM16.2639 3.491C16.3385 3.47366 16.4546 3.46673 16.9867 3.46673H21.1467C21.6806 3.46673 21.795 3.47193 21.8695 3.491C22.0252 3.52823 22.1676 3.60787 22.2808 3.72107C22.394 3.83428 22.4736 3.97663 22.5109 4.13233C22.5282 4.20513 22.5334 4.31953 22.5334 4.8534V9.0134C22.5334 9.54726 22.5265 9.66166 22.5091 9.7362C22.4719 9.8919 22.3923 10.0343 22.2791 10.1475C22.1659 10.2607 22.0235 10.3403 21.8678 10.3775C21.795 10.3949 21.6806 10.4001 21.1467 10.4001H16.9867C16.4529 10.4001 16.3385 10.3949 16.2639 10.3758C16.1082 10.3386 15.9659 10.2589 15.8527 10.1457C15.7395 10.0325 15.6598 9.89017 15.6226 9.73446C15.607 9.6634 15.6001 9.549 15.6001 9.0134V4.8534C15.6001 4.31953 15.6053 4.20513 15.6243 4.1306C15.6616 3.97489 15.7412 3.83254 15.8544 3.71934C15.9676 3.60614 16.11 3.5265 16.2657 3.48926L16.2639 3.491ZM4.76673 13.8667H9.10006C9.497 13.8667 9.83846 13.8667 10.1401 13.9378C10.607 14.0494 11.0339 14.288 11.3735 14.6273C11.713 14.9666 11.9521 15.3933 12.0641 15.8601C12.1334 16.1617 12.1334 16.5014 12.1334 16.9001V21.2334C12.1334 21.6303 12.1334 21.9718 12.0623 22.2734C11.9508 22.7403 11.7121 23.1672 11.3728 23.5068C11.0335 23.8464 10.6069 24.0854 10.1401 24.1974C9.83846 24.2667 9.49873 24.2667 9.10006 24.2667H4.76673C4.3698 24.2667 4.02833 24.2667 3.72673 24.1957C3.25983 24.0841 2.83294 23.8454 2.49334 23.5062C2.15375 23.1669 1.91472 22.7402 1.80273 22.2734C1.7334 21.9718 1.7334 21.6321 1.7334 21.2334V16.9001C1.7334 16.5031 1.7334 16.1617 1.80447 15.8601C1.91603 15.3932 2.15468 14.9663 2.49397 14.6267C2.83325 14.2871 3.25994 14.048 3.72673 13.9361C4.02833 13.8667 4.36806 13.8667 4.76673 13.8667ZM4.8534 15.6001C4.31953 15.6001 4.20513 15.6053 4.1306 15.6243C3.97489 15.6616 3.83254 15.7412 3.71934 15.8544C3.60614 15.9676 3.5265 16.11 3.48926 16.2657C3.47366 16.3367 3.46673 16.4511 3.46673 16.9867V21.1467C3.46673 21.6806 3.47193 21.795 3.491 21.8695C3.52823 22.0252 3.60787 22.1676 3.72107 22.2808C3.83428 22.394 3.97663 22.4736 4.13233 22.5109C4.20513 22.5282 4.31953 22.5334 4.8534 22.5334H9.0134C9.54726 22.5334 9.66166 22.5265 9.7362 22.5091C9.8919 22.4719 10.0343 22.3923 10.1475 22.2791C10.2607 22.1658 10.3403 22.0235 10.3775 21.8678C10.3949 21.795 10.4001 21.6806 10.4001 21.1467V16.9867C10.4001 16.4529 10.3949 16.3385 10.3758 16.2639C10.3386 16.1082 10.2589 15.9659 10.1457 15.8527C10.0325 15.7395 9.89017 15.6598 9.73446 15.6226C9.6634 15.607 9.549 15.6001 9.0134 15.6001H4.8534ZM16.9867 13.8667H16.9001C16.5031 13.8667 16.1617 13.8667 15.8601 13.9378C15.3932 14.0494 14.9663 14.288 14.6267 14.6273C14.2871 14.9666 14.048 15.3933 13.9361 15.8601C13.8667 16.1617 13.8667 16.5014 13.8667 16.9001V21.2334C13.8667 21.6303 13.8667 21.9718 13.9378 22.2734C14.0494 22.7403 14.288 23.1672 14.6273 23.5068C14.9666 23.8464 15.3933 24.0854 15.8601 24.1974C16.1617 24.2685 16.5031 24.2685 16.9001 24.2685H21.2334C21.6303 24.2685 21.9718 24.2685 22.2734 24.1974C22.74 24.0855 23.1665 23.8468 23.5058 23.5075C23.845 23.1682 24.0838 22.7417 24.1957 22.2751C24.2667 21.9735 24.2667 21.6321 24.2667 21.2351V16.9001C24.2667 16.5031 24.2667 16.1617 24.1957 15.8601C24.0841 15.3932 23.8454 14.9663 23.5062 14.6267C23.1669 14.2871 22.7402 14.048 22.2734 13.9361C21.9718 13.8667 21.6321 13.8667 21.2334 13.8667H16.9867ZM16.2639 15.6243C16.3385 15.607 16.4546 15.6001 16.9867 15.6001H21.1467C21.6806 15.6001 21.795 15.6053 21.8695 15.6243C22.0252 15.6616 22.1676 15.7412 22.2808 15.8544C22.394 15.9676 22.4736 16.11 22.5109 16.2657C22.5282 16.3385 22.5334 16.4529 22.5334 16.9867V21.1467C22.5334 21.6806 22.5265 21.795 22.5091 21.8695C22.4719 22.0252 22.3923 22.1676 22.2791 22.2808C22.1659 22.394 22.0235 22.4736 21.8678 22.5109C21.795 22.5282 21.6806 22.5334 21.1467 22.5334H16.9867C16.4529 22.5334 16.3385 22.5265 16.2639 22.5091C16.1082 22.4719 15.9659 22.3923 15.8527 22.2791C15.7395 22.1658 15.6598 22.0235 15.6226 21.8678C15.607 21.7967 15.6001 21.6823 15.6001 21.1467V16.9867C15.6001 16.4529 15.6053 16.3385 15.6243 16.2639C15.6616 16.1082 15.7412 15.9659 15.8544 15.8527C15.9676 15.7395 16.11 15.6598 16.2657 15.6226L16.2639 15.6243Z" fill="#97A7C3"></path></svg>